REM DIRINDEX 1\2\4\18,1\2\4\19,1\2\5\20,1\2\5\21,1\2\6\22,1\2\6\23,1\2\7\24,1\2\7\25,1\2\8\26,1\2\8\27,1\2\9\28,1\2\9\29,1\2\10\30,1\3\11\31,1\3\11\32,1\3\11\33,1\3\11\34,1\3\11\35,1\3\12\36,1\3\12\37,1\3\12\38,1\3\12\39,1\3\12\40,1\3\13\41,1\3\13\42,1\3\13\43,1\3\13\44,1\3\13\45,1\3\14\46,1\3\14\47,1\3\14\48,1\3\14\49,1\3\15\50,1\3\15\51,1\3\15\52,1\3\15\53,1\3\15\54,1\3\16\55,1\3\16\56,1\3\16\57,1\3\16\58,1\3\16\59,1\3\17\60,1\3\17\61
REM DIRNAME "folder01","folder02","folder03","folder04","folder05","folder06","folder07","folder08","folder09","folder10","folder11","folder12","folder13","folder14","folder15","folder16","folder17","folder18","folder19","folder20","folder21","folder22","folder23","folder24","folder25","folder26","folder27","folder28","folder29","folder30","folder31","folder32","folder33","folder34","folder35","folder36","folder37","folder38","folder39","folder40","folder41","folder42","folder43","folder44","folder45","folder46","folder47","folder48","folder49","folder50","folder51","folder52","folder53","folder54","folder55","folder56","folder57","folder58","folder59","folder60","folder61"
TITLE ""
FILE "TOEIC LR Kinnojyukugo_10.mp3" MP3
  TRACK 01 AUDIO
    TITLE "0:"
    INDEX 01 00:00:00
  TRACK 02 AUDIO
    TITLE "31:cjc160_4566"
    INDEX 01 00:00:12
  TRACK 03 AUDIO
    TITLE "0:"
    INDEX 01 00:01:27
  TRACK 04 AUDIO
    TITLE "32:cjc160_4567"
    INDEX 01 00:01:61
  TRACK 05 AUDIO
    TITLE "0:"
    INDEX 01 00:04:10
  TRACK 06 AUDIO
    TITLE "33:cjc160_4568"
    INDEX 01 00:04:47
  TRACK 07 AUDIO
    TITLE "0:"
    INDEX 01 00:06:07
  TRACK 08 AUDIO
    TITLE "34:cjc160_4569"
    INDEX 01 00:06:44
  TRACK 09 AUDIO
    TITLE "0:"
    INDEX 01 00:08:25
  TRACK 10 AUDIO
    TITLE "35:cjc160_4570"
    INDEX 01 00:08:47
  TRACK 11 AUDIO
    TITLE "0:"
    INDEX 01 00:10:28
  TRACK 12 AUDIO
    TITLE "31:cjc160_4571"
    INDEX 01 00:11:34
  TRACK 13 AUDIO
    TITLE "0:"
    INDEX 01 00:12:62
  TRACK 14 AUDIO
    TITLE "32:cjc160_4572"
    INDEX 01 00:13:23
  TRACK 15 AUDIO
    TITLE "0:"
    INDEX 01 00:15:63
  TRACK 16 AUDIO
    TITLE "33:cjc160_4573"
    INDEX 01 00:16:25
  TRACK 17 AUDIO
    TITLE "0:"
    INDEX 01 00:18:06
  TRACK 18 AUDIO
    TITLE "34:cjc160_4574"
    INDEX 01 00:18:47
  TRACK 19 AUDIO
    TITLE "0:"
    INDEX 01 00:20:42
  TRACK 20 AUDIO
    TITLE "35:cjc160_4575"
    INDEX 01 00:20:70
  TRACK 21 AUDIO
    TITLE "0:"
    INDEX 01 00:22:65
  TRACK 22 AUDIO
    TITLE "31:cjc160_4576"
    INDEX 01 00:23:66
  TRACK 23 AUDIO
    TITLE "0:"
    INDEX 01 00:25:18
  TRACK 24 AUDIO
    TITLE "32:cjc160_4577"
    INDEX 01 00:25:63
  TRACK 25 AUDIO
    TITLE "0:"
    INDEX 01 00:29:10
  TRACK 26 AUDIO
    TITLE "33:cjc160_4578"
    INDEX 01 00:29:51
  TRACK 27 AUDIO
    TITLE "0:"
    INDEX 01 00:32:57
  TRACK 28 AUDIO
    TITLE "34:cjc160_4579"
    INDEX 01 00:33:22
  TRACK 29 AUDIO
    TITLE "0:"
    INDEX 01 00:35:75
  TRACK 30 AUDIO
    TITLE "35:cjc160_4580"
    INDEX 01 00:36:26
  TRACK 31 AUDIO
    TITLE "0:"
    INDEX 01 00:39:03
  TRACK 32 AUDIO
    TITLE "31:cjc160_4581"
    INDEX 01 00:40:04
  TRACK 33 AUDIO
    TITLE "0:"
    INDEX 01 00:41:29
  TRACK 34 AUDIO
    TITLE "32:cjc160_4582"
    INDEX 01 00:41:64
  TRACK 35 AUDIO
    TITLE "0:"
    INDEX 01 00:43:41
  TRACK 36 AUDIO
    TITLE "33:cjc160_4583"
    INDEX 01 00:44:06
  TRACK 37 AUDIO
    TITLE "0:"
    INDEX 01 00:47:14
  TRACK 38 AUDIO
    TITLE "34:cjc160_4584"
    INDEX 01 00:47:55
  TRACK 39 AUDIO
    TITLE "0:"
    INDEX 01 00:49:62
  TRACK 40 AUDIO
    TITLE "35:cjc160_4585"
    INDEX 01 00:50:16
  TRACK 41 AUDIO
    TITLE "0:"
    INDEX 01 00:52:27
  TRACK 42 AUDIO
    TITLE "31:cjc160_4586"
    INDEX 01 00:53:28
  TRACK 43 AUDIO
    TITLE "0:"
    INDEX 01 00:54:49
  TRACK 44 AUDIO
    TITLE "32:cjc160_4587"
    INDEX 01 00:55:13
  TRACK 45 AUDIO
    TITLE "0:"
    INDEX 01 00:58:45
  TRACK 46 AUDIO
    TITLE "33:cjc160_4588"
    INDEX 01 00:59:07
  TRACK 47 AUDIO
    TITLE "0:"
    INDEX 01 01:01:53
  TRACK 48 AUDIO
    TITLE "34:cjc160_4589"
    INDEX 01 01:02:17
  TRACK 49 AUDIO
    TITLE "0:"
    INDEX 01 01:04:40
  TRACK 50 AUDIO
    TITLE "35:cjc160_4590"
    INDEX 01 01:04:65
  TRACK 51 AUDIO
    TITLE "0:"
    INDEX 01 01:07:13
  TRACK 52 AUDIO
    TITLE "31:cjc160_4591"
    INDEX 01 01:08:12
  TRACK 53 AUDIO
    TITLE "0:"
    INDEX 01 01:09:39
  TRACK 54 AUDIO
    TITLE "32:cjc160_4592"
    INDEX 01 01:10:05
  TRACK 55 AUDIO
    TITLE "0:"
    INDEX 01 01:11:08
  TRACK 56 AUDIO
    TITLE "33:cjc160_4593"
    INDEX 01 01:11:42
  TRACK 57 AUDIO
    TITLE "0:"
    INDEX 01 01:14:30
  TRACK 58 AUDIO
    TITLE "34:cjc160_4594"
    INDEX 01 01:14:69
  TRACK 59 AUDIO
    TITLE "0:"
    INDEX 01 01:17:62
  TRACK 60 AUDIO
    TITLE "35:cjc160_4595"
    INDEX 01 01:18:12
  TRACK 61 AUDIO
    TITLE "0:"
    INDEX 01 01:21:05
  TRACK 62 AUDIO
    TITLE "31:cjc160_4596"
    INDEX 01 01:22:04
  TRACK 63 AUDIO
    TITLE "0:"
    INDEX 01 01:23:29
  TRACK 64 AUDIO
    TITLE "32:cjc160_4597"
    INDEX 01 01:23:68
  TRACK 65 AUDIO
    TITLE "0:"
    INDEX 01 01:25:05
  TRACK 66 AUDIO
    TITLE "33:cjc160_4598"
    INDEX 01 01:25:42
  TRACK 67 AUDIO
    TITLE "0:"
    INDEX 01 01:27:45
  TRACK 68 AUDIO
    TITLE "34:cjc160_4599"
    INDEX 01 01:28:09
  TRACK 69 AUDIO
    TITLE "0:"
    INDEX 01 01:29:63
  TRACK 70 AUDIO
    TITLE "35:cjc160_4600"
    INDEX 01 01:30:12
  TRACK 71 AUDIO
    TITLE "0:"
    INDEX 01 01:31:68
  TRACK 72 AUDIO
    TITLE "31:cjc160_4601"
    INDEX 01 01:32:67
  TRACK 73 AUDIO
    TITLE "0:"
    INDEX 01 01:34:29
  TRACK 74 AUDIO
    TITLE "32:cjc160_4602"
    INDEX 01 01:34:68
  TRACK 75 AUDIO
    TITLE "0:"
    INDEX 01 01:36:12
  TRACK 76 AUDIO
    TITLE "33:cjc160_4603"
    INDEX 01 01:36:53
  TRACK 77 AUDIO
    TITLE "0:"
    INDEX 01 01:39:52
  TRACK 78 AUDIO
    TITLE "34:cjc160_4604"
    INDEX 01 01:40:16
  TRACK 79 AUDIO
    TITLE "0:"
    INDEX 01 01:42:46
  TRACK 80 AUDIO
    TITLE "35:cjc160_4605"
    INDEX 01 01:43:03
  TRACK 81 AUDIO
    TITLE "0:"
    INDEX 01 01:45:33
  TRACK 82 AUDIO
    TITLE "31:cjc160_4606"
    INDEX 01 01:46:36
  TRACK 83 AUDIO
    TITLE "0:"
    INDEX 01 01:47:53
  TRACK 84 AUDIO
    TITLE "32:cjc160_4607"
    INDEX 01 01:48:19
  TRACK 85 AUDIO
    TITLE "0:"
    INDEX 01 01:49:52
  TRACK 86 AUDIO
    TITLE "33:cjc160_4608"
    INDEX 01 01:50:14
  TRACK 87 AUDIO
    TITLE "0:"
    INDEX 01 01:52:05
  TRACK 88 AUDIO
    TITLE "34:cjc160_4609"
    INDEX 01 01:52:43
  TRACK 89 AUDIO
    TITLE "0:"
    INDEX 01 01:54:12
  TRACK 90 AUDIO
    TITLE "35:cjc160_4610"
    INDEX 01 01:54:40
  TRACK 91 AUDIO
    TITLE "0:"
    INDEX 01 01:56:07
  TRACK 92 AUDIO
    TITLE "31:cjc160_4611"
    INDEX 01 01:57:07
  TRACK 93 AUDIO
    TITLE "0:"
    INDEX 01 01:58:51
  TRACK 94 AUDIO
    TITLE "32:cjc160_4612"
    INDEX 01 01:59:19
  TRACK 95 AUDIO
    TITLE "0:"
    INDEX 01 02:02:02
  TRACK 96 AUDIO
    TITLE "33:cjc160_4613"
    INDEX 01 02:02:45
  TRACK 97 AUDIO
    TITLE "0:"
    INDEX 01 02:04:24
  TRACK 98 AUDIO
    TITLE "34:cjc160_4614"
    INDEX 01 02:04:63
  TRACK 99 AUDIO
    TITLE "0:"
    INDEX 01 02:06:70
  TRACK 100 AUDIO
    TITLE "35:cjc160_4615"
    INDEX 01 02:07:21
  TRACK 101 AUDIO
    TITLE "0:"
    INDEX 01 02:09:27
  TRACK 102 AUDIO
    TITLE "31:cjc160_4616"
    INDEX 01 02:10:27
  TRACK 103 AUDIO
    TITLE "0:"
    INDEX 01 02:11:73
  TRACK 104 AUDIO
    TITLE "32:cjc160_4617"
    INDEX 01 02:12:37
  TRACK 105 AUDIO
    TITLE "0:"
    INDEX 01 02:14:09
  TRACK 106 AUDIO
    TITLE "33:cjc160_4618"
    INDEX 01 02:14:42
  TRACK 107 AUDIO
    TITLE "0:"
    INDEX 01 02:16:49
  TRACK 108 AUDIO
    TITLE "34:cjc160_4619"
    INDEX 01 02:17:07
  TRACK 109 AUDIO
    TITLE "0:"
    INDEX 01 02:19:22
  TRACK 110 AUDIO
    TITLE "35:cjc160_4620"
    INDEX 01 02:19:47
  TRACK 111 AUDIO
    TITLE "0:"
    INDEX 01 02:21:64
  TRACK 112 AUDIO
    TITLE "31:cjc160_4621"
    INDEX 01 02:22:63
  TRACK 113 AUDIO
    TITLE "0:"
    INDEX 01 02:24:27
  TRACK 114 AUDIO
    TITLE "32:cjc160_4622"
    INDEX 01 02:24:64
  TRACK 115 AUDIO
    TITLE "0:"
    INDEX 01 02:27:39
  TRACK 116 AUDIO
    TITLE "33:cjc160_4623"
    INDEX 01 02:27:74
  TRACK 117 AUDIO
    TITLE "0:"
    INDEX 01 02:30:71
  TRACK 118 AUDIO
    TITLE "34:cjc160_4624"
    INDEX 01 02:31:35
  TRACK 119 AUDIO
    TITLE "0:"
    INDEX 01 02:34:57
  TRACK 120 AUDIO
    TITLE "35:cjc160_4625"
    INDEX 01 02:35:07
  TRACK 121 AUDIO
    TITLE "0:"
    INDEX 01 02:38:29
  TRACK 122 AUDIO
    TITLE "31:cjc160_4626"
    INDEX 01 02:39:30
  TRACK 123 AUDIO
    TITLE "0:"
    INDEX 01 02:40:51
  TRACK 124 AUDIO
    TITLE "32:cjc160_4627"
    INDEX 01 02:41:18
  TRACK 125 AUDIO
    TITLE "0:"
    INDEX 01 02:42:48
  TRACK 126 AUDIO
    TITLE "33:cjc160_4628"
    INDEX 01 02:43:22
  TRACK 127 AUDIO
    TITLE "0:"
    INDEX 01 02:45:51
  TRACK 128 AUDIO
    TITLE "34:cjc160_4629"
    INDEX 01 02:46:15
  TRACK 129 AUDIO
    TITLE "0:"
    INDEX 01 02:48:47
  TRACK 130 AUDIO
    TITLE "35:cjc160_4630"
    INDEX 01 02:48:73
  TRACK 131 AUDIO
    TITLE "0:"
    INDEX 01 02:51:26
  TRACK 132 AUDIO
    TITLE "31:cjc160_4631"
    INDEX 01 02:52:25
  TRACK 133 AUDIO
    TITLE "0:"
    INDEX 01 02:53:46
  TRACK 134 AUDIO
    TITLE "32:cjc160_4632"
    INDEX 01 02:54:10
  TRACK 135 AUDIO
    TITLE "0:"
    INDEX 01 02:55:28
  TRACK 136 AUDIO
    TITLE "33:cjc160_4633"
    INDEX 01 02:55:65
  TRACK 137 AUDIO
    TITLE "0:"
    INDEX 01 02:57:75
  TRACK 138 AUDIO
    TITLE "34:cjc160_4634"
    INDEX 01 02:58:43
  TRACK 139 AUDIO
    TITLE "0:"
    INDEX 01 03:00:64
  TRACK 140 AUDIO
    TITLE "35:cjc160_4635"
    INDEX 01 03:01:14
  TRACK 141 AUDIO
    TITLE "0:"
    INDEX 01 03:03:37
  TRACK 142 AUDIO
    TITLE "31:cjc160_4636"
    INDEX 01 03:04:38
  TRACK 143 AUDIO
    TITLE "0:"
    INDEX 01 03:05:55
  TRACK 144 AUDIO
    TITLE "32:cjc160_4637"
    INDEX 01 03:06:18
  TRACK 145 AUDIO
    TITLE "0:"
    INDEX 01 03:08:46
  TRACK 146 AUDIO
    TITLE "33:cjc160_4638"
    INDEX 01 03:09:10
  TRACK 147 AUDIO
    TITLE "0:"
    INDEX 01 03:12:73
  TRACK 148 AUDIO
    TITLE "34:cjc160_4639"
    INDEX 01 03:13:37
  TRACK 149 AUDIO
    TITLE "0:"
    INDEX 01 03:16:26
  TRACK 150 AUDIO
    TITLE "35:cjc160_4640"
    INDEX 01 03:16:49
  TRACK 151 AUDIO
    TITLE "0:"
    INDEX 01 03:19:38
  TRACK 152 AUDIO
    TITLE "31:cjc160_4641"
    INDEX 01 03:20:37
  TRACK 153 AUDIO
    TITLE "0:"
    INDEX 01 03:21:46
  TRACK 154 AUDIO
    TITLE "32:cjc160_4642"
    INDEX 01 03:22:07
  TRACK 155 AUDIO
    TITLE "0:"
    INDEX 01 03:25:66
  TRACK 156 AUDIO
    TITLE "33:cjc160_4643"
    INDEX 01 03:26:28
  TRACK 157 AUDIO
    TITLE "0:"
    INDEX 01 03:28:64
  TRACK 158 AUDIO
    TITLE "34:cjc160_4644"
    INDEX 01 03:29:28
  TRACK 159 AUDIO
    TITLE "0:"
    INDEX 01 03:31:25
  TRACK 160 AUDIO
    TITLE "35:cjc160_4645"
    INDEX 01 03:31:47
  TRACK 161 AUDIO
    TITLE "0:"
    INDEX 01 03:33:48
  TRACK 162 AUDIO
    TITLE "31:cjc160_4646"
    INDEX 01 03:34:47
  TRACK 163 AUDIO
    TITLE "0:"
    INDEX 01 03:35:62
  TRACK 164 AUDIO
    TITLE "32:cjc160_4647"
    INDEX 01 03:36:24
  TRACK 165 AUDIO
    TITLE "0:"
    INDEX 01 03:38:74
  TRACK 166 AUDIO
    TITLE "33:cjc160_4648"
    INDEX 01 03:39:40
  TRACK 167 AUDIO
    TITLE "0:"
    INDEX 01 03:43:21
  TRACK 168 AUDIO
    TITLE "34:cjc160_4649"
    INDEX 01 03:43:60
  TRACK 169 AUDIO
    TITLE "0:"
    INDEX 01 03:46:66
  TRACK 170 AUDIO
    TITLE "35:cjc160_4650"
    INDEX 01 03:47:22
  TRACK 171 AUDIO
    TITLE "0:"
    INDEX 01 03:50:29
  TRACK 172 AUDIO
    TITLE "31:cjc160_4651"
    INDEX 01 03:51:32
  TRACK 173 AUDIO
    TITLE "0:"
    INDEX 01 03:52:39
  TRACK 174 AUDIO
    TITLE "32:cjc160_4652"
    INDEX 01 03:53:03
  TRACK 175 AUDIO
    TITLE "0:"
    INDEX 01 03:54:20
  TRACK 176 AUDIO
    TITLE "33:cjc160_4653"
    INDEX 01 03:54:58
  TRACK 177 AUDIO
    TITLE "0:"
    INDEX 01 03:57:11
  TRACK 178 AUDIO
    TITLE "34:cjc160_4654"
    INDEX 01 03:57:50
  TRACK 179 AUDIO
    TITLE "0:"
    INDEX 01 04:00:01
  TRACK 180 AUDIO
    TITLE "35:cjc160_4655"
    INDEX 01 04:00:27
  TRACK 181 AUDIO
    TITLE "0:"
    INDEX 01 04:02:53
  TRACK 182 AUDIO
    TITLE "31:cjc160_4656"
    INDEX 01 04:03:55
  TRACK 183 AUDIO
    TITLE "0:"
    INDEX 01 04:05:14
  TRACK 184 AUDIO
    TITLE "32:cjc160_4657"
    INDEX 01 04:05:48
  TRACK 185 AUDIO
    TITLE "0:"
    INDEX 01 04:08:54
  TRACK 186 AUDIO
    TITLE "33:cjc160_4658"
    INDEX 01 04:09:22
  TRACK 187 AUDIO
    TITLE "0:"
    INDEX 01 04:11:21
  TRACK 188 AUDIO
    TITLE "34:cjc160_4659"
    INDEX 01 04:11:62
  TRACK 189 AUDIO
    TITLE "0:"
    INDEX 01 04:13:67
  TRACK 190 AUDIO
    TITLE "35:cjc160_4660"
    INDEX 01 04:14:17
  TRACK 191 AUDIO
    TITLE "0:"
    INDEX 01 04:16:22
  TRACK 192 AUDIO
    TITLE "31:cjc160_4661"
    INDEX 01 04:17:23
  TRACK 193 AUDIO
    TITLE "0:"
    INDEX 01 04:18:70
  TRACK 194 AUDIO
    TITLE "32:cjc160_4662"
    INDEX 01 04:19:28
  TRACK 195 AUDIO
    TITLE "0:"
    INDEX 01 04:23:40
  TRACK 196 AUDIO
    TITLE "33:cjc160_4663"
    INDEX 01 04:24:02
  TRACK 197 AUDIO
    TITLE "0:"
    INDEX 01 04:27:45
  TRACK 198 AUDIO
    TITLE "34:cjc160_4664"
    INDEX 01 04:28:08
  TRACK 199 AUDIO
    TITLE "0:"
    INDEX 01 04:31:02
  TRACK 200 AUDIO
    TITLE "35:cjc160_4665"
    INDEX 01 04:31:28
  TRACK 201 AUDIO
    TITLE "0:"
    INDEX 01 04:34:24
  TRACK 202 AUDIO
    TITLE "31:cjc160_4666"
    INDEX 01 04:35:25
  TRACK 203 AUDIO
    TITLE "0:"
    INDEX 01 04:36:64
  TRACK 204 AUDIO
    TITLE "32:cjc160_4667"
    INDEX 01 04:37:28
  TRACK 205 AUDIO
    TITLE "0:"
    INDEX 01 04:39:35
  TRACK 206 AUDIO
    TITLE "33:cjc160_4668"
    INDEX 01 04:39:72
  TRACK 207 AUDIO
    TITLE "0:"
    INDEX 01 04:42:18
  TRACK 208 AUDIO
    TITLE "34:cjc160_4669"
    INDEX 01 04:42:55
  TRACK 209 AUDIO
    TITLE "0:"
    INDEX 01 04:44:54
  TRACK 210 AUDIO
    TITLE "35:cjc160_4670"
    INDEX 01 04:45:06
  TRACK 211 AUDIO
    TITLE "0:"
    INDEX 01 04:46:74
  TRACK 212 AUDIO
    TITLE "31:cjc160_4671"
    INDEX 01 04:48:02
  TRACK 213 AUDIO
    TITLE "0:"
    INDEX 01 04:49:21
  TRACK 214 AUDIO
    TITLE "32:cjc160_4672"
    INDEX 01 04:49:63
  TRACK 215 AUDIO
    TITLE "0:"
    INDEX 01 04:51:03
  TRACK 216 AUDIO
    TITLE "33:cjc160_4673"
    INDEX 01 04:51:44
  TRACK 217 AUDIO
    TITLE "0:"
    INDEX 01 04:53:31
  TRACK 218 AUDIO
    TITLE "34:cjc160_4674"
    INDEX 01 04:53:70
  TRACK 219 AUDIO
    TITLE "0:"
    INDEX 01 04:55:71
  TRACK 220 AUDIO
    TITLE "35:cjc160_4675"
    INDEX 01 04:56:20
  TRACK 221 AUDIO
    TITLE "0:"
    INDEX 01 04:58:20
  TRACK 222 AUDIO
    TITLE "31:cjc160_4676"
    INDEX 01 04:59:20
  TRACK 223 AUDIO
    TITLE "0:"
    INDEX 01 05:00:62
  TRACK 224 AUDIO
    TITLE "32:cjc160_4677"
    INDEX 01 05:01:25
  TRACK 225 AUDIO
    TITLE "0:"
    INDEX 01 05:02:67
  TRACK 226 AUDIO
    TITLE "33:cjc160_4678"
    INDEX 01 05:03:29
  TRACK 227 AUDIO
    TITLE "0:"
    INDEX 01 05:06:69
  TRACK 228 AUDIO
    TITLE "34:cjc160_4679"
    INDEX 01 05:07:41
  TRACK 229 AUDIO
    TITLE "0:"
    INDEX 01 05:10:26
  TRACK 230 AUDIO
    TITLE "35:cjc160_4680"
    INDEX 01 05:10:53
  TRACK 231 AUDIO
    TITLE "0:"
    INDEX 01 05:13:40
  TRACK 232 AUDIO
    TITLE "31:cjc160_4681"
    INDEX 01 05:14:41
  TRACK 233 AUDIO
    TITLE "0:"
    INDEX 01 05:15:48
  TRACK 234 AUDIO
    TITLE "32:cjc160_4682"
    INDEX 01 05:16:13
  TRACK 235 AUDIO
    TITLE "0:"
    INDEX 01 05:17:16
  TRACK 236 AUDIO
    TITLE "33:cjc160_4683"
    INDEX 01 05:17:55
  TRACK 237 AUDIO
    TITLE "0:"
    INDEX 01 05:20:20
  TRACK 238 AUDIO
    TITLE "34:cjc160_4684"
    INDEX 01 05:20:59
  TRACK 239 AUDIO
    TITLE "0:"
    INDEX 01 05:23:24
  TRACK 240 AUDIO
    TITLE "35:cjc160_4685"
    INDEX 01 05:23:50
  TRACK 241 AUDIO
    TITLE "0:"
    INDEX 01 05:26:15
  TRACK 242 AUDIO
    TITLE "31:cjc160_4686"
    INDEX 01 05:27:16
  TRACK 243 AUDIO
    TITLE "0:"
    INDEX 01 05:28:67
  TRACK 244 AUDIO
    TITLE "32:cjc160_4687"
    INDEX 01 05:29:27
  TRACK 245 AUDIO
    TITLE "0:"
    INDEX 01 05:30:62
  TRACK 246 AUDIO
    TITLE "33:cjc160_4688"
    INDEX 01 05:31:26
  TRACK 247 AUDIO
    TITLE "0:"
    INDEX 01 05:34:28
  TRACK 248 AUDIO
    TITLE "34:cjc160_4689"
    INDEX 01 05:34:69
  TRACK 249 AUDIO
    TITLE "0:"
    INDEX 01 05:37:64
  TRACK 250 AUDIO
    TITLE "35:cjc160_4690"
    INDEX 01 05:38:12
  TRACK 251 AUDIO
    TITLE "0:"
    INDEX 01 05:41:05
  TRACK 252 AUDIO
    TITLE "31:cjc160_4691"
    INDEX 01 05:42:06
  TRACK 253 AUDIO
    TITLE "0:"
    INDEX 01 05:43:23
  TRACK 254 AUDIO
    TITLE "32:cjc160_4692"
    INDEX 01 05:43:62
  TRACK 255 AUDIO
    TITLE "0:"
    INDEX 01 05:45:55
  TRACK 256 AUDIO
    TITLE "33:cjc160_4693"
    INDEX 01 05:46:19
  TRACK 257 AUDIO
    TITLE "0:"
    INDEX 01 05:47:52
  TRACK 258 AUDIO
    TITLE "34:cjc160_4694"
    INDEX 01 05:48:14
  TRACK 259 AUDIO
    TITLE "0:"
    INDEX 01 05:49:61
  TRACK 260 AUDIO
    TITLE "35:cjc160_4695"
    INDEX 01 05:50:09
  TRACK 261 AUDIO
    TITLE "0:"
    INDEX 01 05:51:56
  TRACK 262 AUDIO
    TITLE "31:cjc160_4696"
    INDEX 01 05:52:55
  TRACK 263 AUDIO
    TITLE "0:"
    INDEX 01 05:54:15
  TRACK 264 AUDIO
    TITLE "32:cjc160_4697"
    INDEX 01 05:54:52
  TRACK 265 AUDIO
    TITLE "0:"
    INDEX 01 05:55:65
  TRACK 266 AUDIO
    TITLE "33:cjc160_4698"
    INDEX 01 05:56:28
  TRACK 267 AUDIO
    TITLE "0:"
    INDEX 01 05:58:36
  TRACK 268 AUDIO
    TITLE "34:cjc160_4699"
    INDEX 01 05:59:03
  TRACK 269 AUDIO
    TITLE "0:"
    INDEX 01 06:01:45
  TRACK 270 AUDIO
    TITLE "35:cjc160_4700"
    INDEX 01 06:01:70
  TRACK 271 AUDIO
    TITLE "0:"
    INDEX 01 06:04:37
  TRACK 272 AUDIO
    TITLE "31:cjc160_4701"
    INDEX 01 06:05:36
  TRACK 273 AUDIO
    TITLE "0:"
    INDEX 01 06:07:10
  TRACK 274 AUDIO
    TITLE "32:cjc160_4702"
    INDEX 01 06:07:47
  TRACK 275 AUDIO
    TITLE "0:"
    INDEX 01 06:09:11
  TRACK 276 AUDIO
    TITLE "33:cjc160_4703"
    INDEX 01 06:09:50
  TRACK 277 AUDIO
    TITLE "0:"
    INDEX 01 06:13:69
  TRACK 278 AUDIO
    TITLE "34:cjc160_4704"
    INDEX 01 06:14:31
  TRACK 279 AUDIO
    TITLE "0:"
    INDEX 01 06:17:47
  TRACK 280 AUDIO
    TITLE "35:cjc160_4705"
    INDEX 01 06:17:73
  TRACK 281 AUDIO
    TITLE "0:"
    INDEX 01 06:21:12
  TRACK 282 AUDIO
    TITLE "31:cjc160_4706"
    INDEX 01 06:22:13
  TRACK 283 AUDIO
    TITLE "0:"
    INDEX 01 06:23:42
  TRACK 284 AUDIO
    TITLE "32:cjc160_4707"
    INDEX 01 06:24:06
  TRACK 285 AUDIO
    TITLE "0:"
    INDEX 01 06:26:62
  TRACK 286 AUDIO
    TITLE "33:cjc160_4708"
    INDEX 01 06:27:24
  TRACK 287 AUDIO
    TITLE "0:"
    INDEX 01 06:29:72
  TRACK 288 AUDIO
    TITLE "34:cjc160_4709"
    INDEX 01 06:30:36
  TRACK 289 AUDIO
    TITLE "0:"
    INDEX 01 06:32:74
  TRACK 290 AUDIO
    TITLE "35:cjc160_4710"
    INDEX 01 06:33:23
  TRACK 291 AUDIO
    TITLE "0:"
    INDEX 01 06:35:61
  TRACK 292 AUDIO
    TITLE "31:cjc160_4711"
    INDEX 01 06:36:61
  TRACK 293 AUDIO
    TITLE "0:"
    INDEX 01 06:39:04
  TRACK 294 AUDIO
    TITLE "32:cjc160_4712"
    INDEX 01 06:39:43
  TRACK 295 AUDIO
    TITLE "0:"
    INDEX 01 06:41:54
  TRACK 296 AUDIO
    TITLE "33:cjc160_4713"
    INDEX 01 06:42:18
  TRACK 297 AUDIO
    TITLE "0:"
    INDEX 01 06:44:72
  TRACK 298 AUDIO
    TITLE "34:cjc160_4714"
    INDEX 01 06:45:40
  TRACK 299 AUDIO
    TITLE "0:"
    INDEX 01 06:47:68
  TRACK 300 AUDIO
    TITLE "35:cjc160_4715"
    INDEX 01 06:48:24
  TRACK 301 AUDIO
    TITLE "0:"
    INDEX 01 06:50:49
  TRACK 302 AUDIO
    TITLE "31:cjc160_4716"
    INDEX 01 06:51:50
  TRACK 303 AUDIO
    TITLE "0:"
    INDEX 01 06:52:63
  TRACK 304 AUDIO
    TITLE "32:cjc160_4717"
    INDEX 01 06:53:30
  TRACK 305 AUDIO
    TITLE "0:"
    INDEX 01 06:55:60
  TRACK 306 AUDIO
    TITLE "33:cjc160_4718"
    INDEX 01 06:56:16
  TRACK 307 AUDIO
    TITLE "0:"
    INDEX 01 07:00:24
  TRACK 308 AUDIO
    TITLE "34:cjc160_4719"
    INDEX 01 07:00:67
  TRACK 309 AUDIO
    TITLE "0:"
    INDEX 01 07:04:43
  TRACK 310 AUDIO
    TITLE "35:cjc160_4720"
    INDEX 01 07:04:72
  TRACK 311 AUDIO
    TITLE "0:"
    INDEX 01 07:08:49
  TRACK 312 AUDIO
    TITLE "31:cjc160_4721"
    INDEX 01 07:09:48
  TRACK 313 AUDIO
    TITLE "0:"
    INDEX 01 07:11:16
  TRACK 314 AUDIO
    TITLE "32:cjc160_4722"
    INDEX 01 07:11:55
  TRACK 315 AUDIO
    TITLE "0:"
    INDEX 01 07:12:72
  TRACK 316 AUDIO
    TITLE "33:cjc160_4723"
    INDEX 01 07:13:36
  TRACK 317 AUDIO
    TITLE "0:"
    INDEX 01 07:16:03
  TRACK 318 AUDIO
    TITLE "34:cjc160_4724"
    INDEX 01 07:16:42
  TRACK 319 AUDIO
    TITLE "0:"
    INDEX 01 07:19:07
  TRACK 320 AUDIO
    TITLE "35:cjc160_4725"
    INDEX 01 07:19:33
  TRACK 321 AUDIO
    TITLE "0:"
    INDEX 01 07:21:73
  TRACK 322 AUDIO
    TITLE "31:cjc160_4726"
    INDEX 01 07:22:72
  TRACK 323 AUDIO
    TITLE "0:"
    INDEX 01 07:24:30
  TRACK 324 AUDIO
    TITLE "32:cjc160_4727"
    INDEX 01 07:24:67
  TRACK 325 AUDIO
    TITLE "0:"
    INDEX 01 07:27:68
  TRACK 326 AUDIO
    TITLE "33:cjc160_4728"
    INDEX 01 07:28:32
  TRACK 327 AUDIO
    TITLE "0:"
    INDEX 01 07:30:09
  TRACK 328 AUDIO
    TITLE "34:cjc160_4729"
    INDEX 01 07:30:48
  TRACK 329 AUDIO
    TITLE "0:"
    INDEX 01 07:32:39
  TRACK 330 AUDIO
    TITLE "35:cjc160_4730"
    INDEX 01 07:32:67
  TRACK 331 AUDIO
    TITLE "0:"
    INDEX 01 07:34:62
  TRACK 332 AUDIO
    TITLE "31:cjc160_4731"
    INDEX 01 07:35:63
  TRACK 333 AUDIO
    TITLE "0:"
    INDEX 01 07:37:13
  TRACK 334 AUDIO
    TITLE "32:cjc160_4732"
    INDEX 01 07:37:48
  TRACK 335 AUDIO
    TITLE "0:"
    INDEX 01 07:39:18
  TRACK 336 AUDIO
    TITLE "33:cjc160_4733"
    INDEX 01 07:39:57
  TRACK 337 AUDIO
    TITLE "0:"
    INDEX 01 07:42:05
  TRACK 338 AUDIO
    TITLE "34:cjc160_4734"
    INDEX 01 07:42:46
  TRACK 339 AUDIO
    TITLE "0:"
    INDEX 01 07:44:21
  TRACK 340 AUDIO
    TITLE "35:cjc160_4735"
    INDEX 01 07:44:48
  TRACK 341 AUDIO
    TITLE "0:"
    INDEX 01 07:46:24
  TRACK 342 AUDIO
    TITLE "31:cjc160_4736"
    INDEX 01 07:47:27
  TRACK 343 AUDIO
    TITLE "0:"
    INDEX 01 07:48:50
  TRACK 344 AUDIO
    TITLE "32:cjc160_4737"
    INDEX 01 07:49:12
  TRACK 345 AUDIO
    TITLE "0:"
    INDEX 01 07:50:28
  TRACK 346 AUDIO
    TITLE "33:cjc160_4738"
    INDEX 01 07:50:71
  TRACK 347 AUDIO
    TITLE "0:"
    INDEX 01 07:53:49
  TRACK 348 AUDIO
    TITLE "34:cjc160_4739"
    INDEX 01 07:54:14
  TRACK 349 AUDIO
    TITLE "0:"
    INDEX 01 07:56:61
  TRACK 350 AUDIO
    TITLE "35:cjc160_4740"
    INDEX 01 07:57:12
  TRACK 351 AUDIO
    TITLE "0:"
    INDEX 01 07:59:64
  TRACK 352 AUDIO
    TITLE "31:cjc160_4741"
    INDEX 01 08:00:63
  TRACK 353 AUDIO
    TITLE "0:"
    INDEX 01 08:02:13
  TRACK 354 AUDIO
    TITLE "32:cjc160_4742"
    INDEX 01 08:02:50
  TRACK 355 AUDIO
    TITLE "0:"
    INDEX 01 08:03:60
  TRACK 356 AUDIO
    TITLE "33:cjc160_4743"
    INDEX 01 08:04:24
  TRACK 357 AUDIO
    TITLE "0:"
    INDEX 01 08:06:29
  TRACK 358 AUDIO
    TITLE "34:cjc160_4744"
    INDEX 01 08:06:70
  TRACK 359 AUDIO
    TITLE "0:"
    INDEX 01 08:09:21
  TRACK 360 AUDIO
    TITLE "35:cjc160_4745"
    INDEX 01 08:09:45
  TRACK 361 AUDIO
    TITLE "0:"
    INDEX 01 08:11:71
  TRACK 362 AUDIO
    TITLE "31:cjc160_4746"
    INDEX 01 08:12:70
  TRACK 363 AUDIO
    TITLE "0:"
    INDEX 01 08:14:12
  TRACK 364 AUDIO
    TITLE "32:cjc160_4747"
    INDEX 01 08:14:52
  TRACK 365 AUDIO
    TITLE "0:"
    INDEX 01 08:15:59
  TRACK 366 AUDIO
    TITLE "33:cjc160_4748"
    INDEX 01 08:16:25
  TRACK 367 AUDIO
    TITLE "0:"
    INDEX 01 08:18:24
  TRACK 368 AUDIO
    TITLE "34:cjc160_4749"
    INDEX 01 08:18:63
  TRACK 369 AUDIO
    TITLE "0:"
    INDEX 01 08:21:16
  TRACK 370 AUDIO
    TITLE "35:cjc160_4750"
    INDEX 01 08:21:40
  TRACK 371 AUDIO
    TITLE "0:"
    INDEX 01 08:23:68
  TRACK 372 AUDIO
    TITLE "31:cjc160_4751"
    INDEX 01 08:24:68
  TRACK 373 AUDIO
    TITLE "0:"
    INDEX 01 08:25:61
  TRACK 374 AUDIO
    TITLE "32:cjc160_4752"
    INDEX 01 08:26:35
  TRACK 375 AUDIO
    TITLE "0:"
    INDEX 01 08:27:48
  TRACK 376 AUDIO
    TITLE "33:cjc160_4753"
    INDEX 01 08:28:13
  TRACK 377 AUDIO
    TITLE "0:"
    INDEX 01 08:31:40
  TRACK 378 AUDIO
    TITLE "34:cjc160_4754"
    INDEX 01 08:32:02
  TRACK 379 AUDIO
    TITLE "0:"
    INDEX 01 08:34:58
  TRACK 380 AUDIO
    TITLE "35:cjc160_4755"
    INDEX 01 08:35:20
  TRACK 381 AUDIO
    TITLE "0:"
    INDEX 01 08:38:01
  TRACK 382 AUDIO
    TITLE "31:cjc160_4756"
    INDEX 01 08:39:12
  TRACK 383 AUDIO
    TITLE "0:"
    INDEX 01 08:40:29
  TRACK 384 AUDIO
    TITLE "32:cjc160_4757"
    INDEX 01 08:40:67
  TRACK 385 AUDIO
    TITLE "0:"
    INDEX 01 08:42:52
  TRACK 386 AUDIO
    TITLE "33:cjc160_4758"
    INDEX 01 08:43:16
  TRACK 387 AUDIO
    TITLE "0:"
    INDEX 01 08:47:47
  TRACK 388 AUDIO
    TITLE "34:cjc160_4759"
    INDEX 01 08:48:11
  TRACK 389 AUDIO
    TITLE "0:"
    INDEX 01 08:51:57
  TRACK 390 AUDIO
    TITLE "35:cjc160_4760"
    INDEX 01 08:52:07
  TRACK 391 AUDIO
    TITLE "0:"
    INDEX 01 08:55:54
  TRACK 392 AUDIO
    TITLE "31:cjc160_4761"
    INDEX 01 08:56:56
  TRACK 393 AUDIO
    TITLE "0:"
    INDEX 01 08:57:71
  TRACK 394 AUDIO
    TITLE "32:cjc160_4762"
    INDEX 01 08:58:35
  TRACK 395 AUDIO
    TITLE "0:"
    INDEX 01 09:00:73
  TRACK 396 AUDIO
    TITLE "33:cjc160_4763"
    INDEX 01 09:01:35
  TRACK 397 AUDIO
    TITLE "0:"
    INDEX 01 09:04:34
  TRACK 398 AUDIO
    TITLE "34:cjc160_4764"
    INDEX 01 09:05:10
  TRACK 399 AUDIO
    TITLE "0:"
    INDEX 01 09:07:30
  TRACK 400 AUDIO
    TITLE "35:cjc160_4765"
    INDEX 01 09:07:58
  TRACK 401 AUDIO
    TITLE "0:"
    INDEX 01 09:10:03
  TRACK 402 AUDIO
    TITLE "31:cjc160_4766"
    INDEX 01 09:11:03
  TRACK 403 AUDIO
    TITLE "0:"
    INDEX 01 09:12:16
  TRACK 404 AUDIO
    TITLE "32:cjc160_4767"
    INDEX 01 09:12:53
  TRACK 405 AUDIO
    TITLE "0:"
    INDEX 01 09:15:24
  TRACK 406 AUDIO
    TITLE "33:cjc160_4768"
    INDEX 01 09:15:67
  TRACK 407 AUDIO
    TITLE "0:"
    INDEX 01 09:18:38
  TRACK 408 AUDIO
    TITLE "34:cjc160_4769"
    INDEX 01 09:18:75
  TRACK 409 AUDIO
    TITLE "0:"
    INDEX 01 09:21:32
  TRACK 410 AUDIO
    TITLE "35:cjc160_4770"
    INDEX 01 09:21:56
  TRACK 411 AUDIO
    TITLE "0:"
    INDEX 01 09:24:11
  TRACK 412 AUDIO
    TITLE "31:cjc160_4771"
    INDEX 01 09:25:12
  TRACK 413 AUDIO
    TITLE "0:"
    INDEX 01 09:26:24
  TRACK 414 AUDIO
    TITLE "32:cjc160_4772"
    INDEX 01 09:26:61
  TRACK 415 AUDIO
    TITLE "0:"
    INDEX 01 09:29:02
  TRACK 416 AUDIO
    TITLE "33:cjc160_4773"
    INDEX 01 09:29:44
  TRACK 417 AUDIO
    TITLE "0:"
    INDEX 01 09:32:54
  TRACK 418 AUDIO
    TITLE "34:cjc160_4774"
    INDEX 01 09:33:16
  TRACK 419 AUDIO
    TITLE "0:"
    INDEX 01 09:35:27
  TRACK 420 AUDIO
    TITLE "35:cjc160_4775"
    INDEX 01 09:35:56
  TRACK 421 AUDIO
    TITLE "0:"
    INDEX 01 09:37:67
  TRACK 422 AUDIO
    TITLE "31:cjc160_4776"
    INDEX 01 09:38:74
  TRACK 423 AUDIO
    TITLE "0:"
    INDEX 01 09:41:02
  TRACK 424 AUDIO
    TITLE "32:cjc160_4777"
    INDEX 01 09:41:41
  TRACK 425 AUDIO
    TITLE "0:"
    INDEX 01 09:45:54
  TRACK 426 AUDIO
    TITLE "33:cjc160_4778"
    INDEX 01 09:46:20
  TRACK 427 AUDIO
    TITLE "0:"
    INDEX 01 09:48:53
  TRACK 428 AUDIO
    TITLE "34:cjc160_4779"
    INDEX 01 09:49:17
  TRACK 429 AUDIO
    TITLE "0:"
    INDEX 01 09:51:59
  TRACK 430 AUDIO
    TITLE "35:cjc160_4780"
    INDEX 01 09:52:07
  TRACK 431 AUDIO
    TITLE "0:"
    INDEX 01 09:54:49
  TRACK 432 AUDIO
    TITLE "31:cjc160_4781"
    INDEX 01 09:55:49
  TRACK 433 AUDIO
    TITLE "0:"
    INDEX 01 09:56:72
  TRACK 434 AUDIO
    TITLE "32:cjc160_4782"
    INDEX 01 09:57:32
  TRACK 435 AUDIO
    TITLE "0:"
    INDEX 01 10:00:17
  TRACK 436 AUDIO
    TITLE "33:cjc160_4783"
    INDEX 01 10:00:68
  TRACK 437 AUDIO
    TITLE "0:"
    INDEX 01 10:03:46
  TRACK 438 AUDIO
    TITLE "34:cjc160_4784"
    INDEX 01 10:04:11
  TRACK 439 AUDIO
    TITLE "0:"
    INDEX 01 10:06:70
  TRACK 440 AUDIO
    TITLE "35:cjc160_4785"
    INDEX 01 10:07:21
  TRACK 441 AUDIO
    TITLE "0:"
    INDEX 01 10:10:05
  TRACK 442 AUDIO
    TITLE "31:cjc160_4786"
    INDEX 01 10:11:05
  TRACK 443 AUDIO
    TITLE "0:"
    INDEX 01 10:12:47
  TRACK 444 AUDIO
    TITLE "32:cjc160_4787"
    INDEX 01 10:13:10
  TRACK 445 AUDIO
    TITLE "0:"
    INDEX 01 10:16:08
  TRACK 446 AUDIO
    TITLE "33:cjc160_4788"
    INDEX 01 10:16:45
  TRACK 447 AUDIO
    TITLE "0:"
    INDEX 01 10:18:44
  TRACK 448 AUDIO
    TITLE "34:cjc160_4789"
    INDEX 01 10:19:08
  TRACK 449 AUDIO
    TITLE "0:"
    INDEX 01 10:21:29
  TRACK 450 AUDIO
    TITLE "35:cjc160_4790"
    INDEX 01 10:21:52
  TRACK 451 AUDIO
    TITLE "0:"
    INDEX 01 10:23:75
  TRACK 452 AUDIO
    TITLE "31:cjc160_4791"
    INDEX 01 10:24:74
  TRACK 453 AUDIO
    TITLE "0:"
    INDEX 01 10:26:20
  TRACK 454 AUDIO
    TITLE "32:cjc160_4792"
    INDEX 01 10:26:57
  TRACK 455 AUDIO
    TITLE "0:"
    INDEX 01 10:27:59
  TRACK 456 AUDIO
    TITLE "33:cjc160_4793"
    INDEX 01 10:28:23
  TRACK 457 AUDIO
    TITLE "0:"
    INDEX 01 10:31:39
  TRACK 458 AUDIO
    TITLE "34:cjc160_4794"
    INDEX 01 10:32:05
  TRACK 459 AUDIO
    TITLE "0:"
    INDEX 01 10:35:11
  TRACK 460 AUDIO
    TITLE "35:cjc160_4795"
    INDEX 01 10:35:35
  TRACK 461 AUDIO
    TITLE "0:"
    INDEX 01 10:38:41
  TRACK 462 AUDIO
    TITLE "31:cjc160_4796"
    INDEX 01 10:39:40
  TRACK 463 AUDIO
    TITLE "0:"
    INDEX 01 10:40:75
  TRACK 464 AUDIO
    TITLE "32:cjc160_4797"
    INDEX 01 10:41:37
  TRACK 465 AUDIO
    TITLE "0:"
    INDEX 01 10:42:72
  TRACK 466 AUDIO
    TITLE "33:cjc160_4798"
    INDEX 01 10:43:34
  TRACK 467 AUDIO
    TITLE "0:"
    INDEX 01 10:45:25
  TRACK 468 AUDIO
    TITLE "34:cjc160_4799"
    INDEX 01 10:45:62
  TRACK 469 AUDIO
    TITLE "0:"
    INDEX 01 10:47:28
  TRACK 470 AUDIO
    TITLE "35:cjc160_4800"
    INDEX 01 10:47:48
  TRACK 471 AUDIO
    TITLE "0:"
    INDEX 01 10:49:15
  TRACK 472 AUDIO
    TITLE "31:cjc160_4801"
    INDEX 01 10:50:17
  TRACK 473 AUDIO
    TITLE "0:"
    INDEX 01 10:51:47
  TRACK 474 AUDIO
    TITLE "32:cjc160_4802"
    INDEX 01 10:52:17
  TRACK 475 AUDIO
    TITLE "0:"
    INDEX 01 10:54:22
  TRACK 476 AUDIO
    TITLE "33:cjc160_4803"
    INDEX 01 10:54:59
  TRACK 477 AUDIO
    TITLE "0:"
    INDEX 01 10:58:20
  TRACK 478 AUDIO
    TITLE "34:cjc160_4804"
    INDEX 01 10:58:59
  TRACK 479 AUDIO
    TITLE "0:"
    INDEX 01 11:02:26
  TRACK 480 AUDIO
    TITLE "35:cjc160_4805"
    INDEX 01 11:02:59
  TRACK 481 AUDIO
    TITLE "0:"
    INDEX 01 11:06:27
  TRACK 482 AUDIO
    TITLE "31:cjc160_4806"
    INDEX 01 11:07:33
  TRACK 483 AUDIO
    TITLE "0:"
    INDEX 01 11:08:60
  TRACK 484 AUDIO
    TITLE "32:cjc160_4807"
    INDEX 01 11:09:22
  TRACK 485 AUDIO
    TITLE "0:"
    INDEX 01 11:11:66
  TRACK 486 AUDIO
    TITLE "33:cjc160_4808"
    INDEX 01 11:12:28
  TRACK 487 AUDIO
    TITLE "0:"
    INDEX 01 11:14:62
  TRACK 488 AUDIO
    TITLE "34:cjc160_4809"
    INDEX 01 11:15:26
  TRACK 489 AUDIO
    TITLE "0:"
    INDEX 01 11:17:27
  TRACK 490 AUDIO
    TITLE "35:cjc160_4810"
    INDEX 01 11:17:53
  TRACK 491 AUDIO
    TITLE "0:"
    INDEX 01 11:19:55
  TRACK 492 AUDIO
    TITLE "31:cjc160_4811"
    INDEX 01 11:20:55
  TRACK 493 AUDIO
    TITLE "0:"
    INDEX 01 11:22:40
  TRACK 494 AUDIO
    TITLE "32:cjc160_4812"
    INDEX 01 11:23:06
  TRACK 495 AUDIO
    TITLE "0:"
    INDEX 01 11:24:59
  TRACK 496 AUDIO
    TITLE "33:cjc160_4813"
    INDEX 01 11:25:25
  TRACK 497 AUDIO
    TITLE "0:"
    INDEX 01 11:28:45
  TRACK 498 AUDIO
    TITLE "34:cjc160_4814"
    INDEX 01 11:29:13
  TRACK 499 AUDIO
    TITLE "0:"
    INDEX 01 11:32:03
  TRACK 500 AUDIO
    TITLE "35:cjc160_4815"
    INDEX 01 11:32:27
  TRACK 501 AUDIO
    TITLE "0:"
    INDEX 01 11:35:17
  TRACK 502 AUDIO
    TITLE "31:cjc160_4816"
    INDEX 01 11:36:17
  TRACK 503 AUDIO
    TITLE "0:"
    INDEX 01 11:37:59
  TRACK 504 AUDIO
    TITLE "32:cjc160_4817"
    INDEX 01 11:38:29
  TRACK 505 AUDIO
    TITLE "0:"
    INDEX 01 11:39:54
  TRACK 506 AUDIO
    TITLE "33:cjc160_4818"
    INDEX 01 11:40:20
  TRACK 507 AUDIO
    TITLE "0:"
    INDEX 01 11:42:04
  TRACK 508 AUDIO
    TITLE "34:cjc160_4819"
    INDEX 01 11:42:51
  TRACK 509 AUDIO
    TITLE "0:"
    INDEX 01 11:44:67
  TRACK 510 AUDIO
    TITLE "35:cjc160_4820"
    INDEX 01 11:45:21
  TRACK 511 AUDIO
    TITLE "0:"
    INDEX 01 11:47:38
  TRACK 512 AUDIO
    TITLE "31:cjc160_4821"
    INDEX 01 11:48:39
  TRACK 513 AUDIO
    TITLE "0:"
    INDEX 01 11:50:09
  TRACK 514 AUDIO
    TITLE "32:cjc160_4822"
    INDEX 01 11:50:48
  TRACK 515 AUDIO
    TITLE "0:"
    INDEX 01 11:52:29
  TRACK 516 AUDIO
    TITLE "33:cjc160_4823"
    INDEX 01 11:52:67
  TRACK 517 AUDIO
    TITLE "0:"
    INDEX 01 11:55:73
  TRACK 518 AUDIO
    TITLE "34:cjc160_4824"
    INDEX 01 11:56:39
  TRACK 519 AUDIO
    TITLE "0:"
    INDEX 01 11:59:08
  TRACK 520 AUDIO
    TITLE "35:cjc160_4825"
    INDEX 01 11:59:33
  TRACK 521 AUDIO
    TITLE "0:"
    INDEX 01 12:01:75
  TRACK 522 AUDIO
    TITLE "31:cjc160_4826"
    INDEX 01 12:03:06
  TRACK 523 AUDIO
    TITLE "0:"
    INDEX 01 12:04:44
  TRACK 524 AUDIO
    TITLE "32:cjc160_4827"
    INDEX 01 12:05:09
  TRACK 525 AUDIO
    TITLE "0:"
    INDEX 01 12:07:31
  TRACK 526 AUDIO
    TITLE "33:cjc160_4828"
    INDEX 01 12:07:62
  TRACK 527 AUDIO
    TITLE "0:"
    INDEX 01 12:11:05
  TRACK 528 AUDIO
    TITLE "34:cjc160_4829"
    INDEX 01 12:11:50
  TRACK 529 AUDIO
    TITLE "0:"
    INDEX 01 12:15:27
  TRACK 530 AUDIO
    TITLE "35:cjc160_4830"
    INDEX 01 12:15:58
  TRACK 531 AUDIO
    TITLE "0:"
    INDEX 01 12:19:34
  TRACK 532 AUDIO
    TITLE "31:cjc160_4831"
    INDEX 01 12:20:39
  TRACK 533 AUDIO
    TITLE "0:"
    INDEX 01 12:22:54
  TRACK 534 AUDIO
    TITLE "32:cjc160_4832"
    INDEX 01 12:23:22
  TRACK 535 AUDIO
    TITLE "0:"
    INDEX 01 12:25:23
  TRACK 536 AUDIO
    TITLE "33:cjc160_4833"
    INDEX 01 12:25:62
  TRACK 537 AUDIO
    TITLE "0:"
    INDEX 01 12:28:66
  TRACK 538 AUDIO
    TITLE "34:cjc160_4834"
    INDEX 01 12:29:33
  TRACK 539 AUDIO
    TITLE "0:"
    INDEX 01 12:32:33
  TRACK 540 AUDIO
    TITLE "35:cjc160_4835"
    INDEX 01 12:32:58
  TRACK 541 AUDIO
    TITLE "0:"
    INDEX 01 12:35:61
  TRACK 542 AUDIO
    TITLE "31:cjc160_4836"
    INDEX 01 12:36:60
  TRACK 543 AUDIO
    TITLE "0:"
    INDEX 01 12:38:24
  TRACK 544 AUDIO
    TITLE "32:cjc160_4837"
    INDEX 01 12:38:63
  TRACK 545 AUDIO
    TITLE "0:"
    INDEX 01 12:40:11
  TRACK 546 AUDIO
    TITLE "33:cjc160_4838"
    INDEX 01 12:40:48
  TRACK 547 AUDIO
    TITLE "0:"
    INDEX 01 12:43:64
  TRACK 548 AUDIO
    TITLE "34:cjc160_4839"
    INDEX 01 12:44:30
  TRACK 549 AUDIO
    TITLE "0:"
    INDEX 01 12:46:68
  TRACK 550 AUDIO
    TITLE "35:cjc160_4840"
    INDEX 01 12:47:28
  TRACK 551 AUDIO
    TITLE "0:"
    INDEX 01 12:49:65
  TRACK 552 AUDIO
    TITLE "31:cjc160_4841"
    INDEX 01 12:50:72
  TRACK 553 AUDIO
    TITLE "0:"
    INDEX 01 12:52:59
  TRACK 554 AUDIO
    TITLE "32:cjc160_4842"
    INDEX 01 12:53:21
  TRACK 555 AUDIO
    TITLE "0:"
    INDEX 01 12:54:62
  TRACK 556 AUDIO
    TITLE "33:cjc160_4843"
    INDEX 01 12:55:34
  TRACK 557 AUDIO
    TITLE "0:"
    INDEX 01 12:58:07
  TRACK 558 AUDIO
    TITLE "34:cjc160_4844"
    INDEX 01 12:58:46
  TRACK 559 AUDIO
    TITLE "0:"
    INDEX 01 13:01:31
  TRACK 560 AUDIO
    TITLE "35:cjc160_4845"
    INDEX 01 13:01:52
  TRACK 561 AUDIO
    TITLE "0:"
    INDEX 01 13:04:39
  TRACK 562 AUDIO
    TITLE "31:cjc160_4846"
    INDEX 01 13:05:34
  TRACK 563 AUDIO
    TITLE "0:"
    INDEX 01 13:07:10
  TRACK 564 AUDIO
    TITLE "32:cjc160_4847"
    INDEX 01 13:07:51
  TRACK 565 AUDIO
    TITLE "0:"
    INDEX 01 13:08:52
  TRACK 566 AUDIO
    TITLE "33:cjc160_4848"
    INDEX 01 13:09:18
  TRACK 567 AUDIO
    TITLE "0:"
    INDEX 01 13:11:64
  TRACK 568 AUDIO
    TITLE "34:cjc160_4849"
    INDEX 01 13:12:30
  TRACK 569 AUDIO
    TITLE "0:"
    INDEX 01 13:15:15
  TRACK 570 AUDIO
    TITLE "35:cjc160_4850"
    INDEX 01 13:15:42
  TRACK 571 AUDIO
    TITLE "0:"
    INDEX 01 13:18:25
  TRACK 572 AUDIO
    TITLE "31:cjc160_4851"
    INDEX 01 13:19:25
  TRACK 573 AUDIO
    TITLE "0:"
    INDEX 01 13:20:65
  TRACK 574 AUDIO
    TITLE "32:cjc160_4852"
    INDEX 01 13:21:29
  TRACK 575 AUDIO
    TITLE "0:"
    INDEX 01 13:23:52
  TRACK 576 AUDIO
    TITLE "33:cjc160_4853"
    INDEX 01 13:24:18
  TRACK 577 AUDIO
    TITLE "0:"
    INDEX 01 13:26:42
  TRACK 578 AUDIO
    TITLE "34:cjc160_4854"
    INDEX 01 13:27:10
  TRACK 579 AUDIO
    TITLE "0:"
    INDEX 01 13:29:25
  TRACK 580 AUDIO
    TITLE "35:cjc160_4855"
    INDEX 01 13:29:56
  TRACK 581 AUDIO
    TITLE "0:"
    INDEX 01 13:31:73
  TRACK 582 AUDIO
    TITLE "31:cjc160_4856"
    INDEX 01 13:33:03
  TRACK 583 AUDIO
    TITLE "0:"
    INDEX 01 13:34:28
  TRACK 584 AUDIO
    TITLE "32:cjc160_4857"
    INDEX 01 13:34:61
  TRACK 585 AUDIO
    TITLE "0:"
    INDEX 01 13:35:71
  TRACK 586 AUDIO
    TITLE "33:cjc160_4858"
    INDEX 01 13:36:31
  TRACK 587 AUDIO
    TITLE "0:"
    INDEX 01 13:39:25
  TRACK 588 AUDIO
    TITLE "34:cjc160_4859"
    INDEX 01 13:39:68
  TRACK 589 AUDIO
    TITLE "0:"
    INDEX 01 13:42:26
  TRACK 590 AUDIO
    TITLE "35:cjc160_4860"
    INDEX 01 13:42:65
  TRACK 591 AUDIO
    TITLE "0:"
    INDEX 01 13:45:22
  TRACK 592 AUDIO
    TITLE "31:cjc160_4861"
    INDEX 01 13:46:35
  TRACK 593 AUDIO
    TITLE "0:"
    INDEX 01 13:47:62
  TRACK 594 AUDIO
    TITLE "32:cjc160_4862"
    INDEX 01 13:48:24
  TRACK 595 AUDIO
    TITLE "0:"
    INDEX 01 13:50:17
  TRACK 596 AUDIO
    TITLE "33:cjc160_4863"
    INDEX 01 13:50:51
  TRACK 597 AUDIO
    TITLE "0:"
    INDEX 01 13:54:05
  TRACK 598 AUDIO
    TITLE "34:cjc160_4864"
    INDEX 01 13:54:42
  TRACK 599 AUDIO
    TITLE "0:"
    INDEX 01 13:56:75
  TRACK 600 AUDIO
    TITLE "35:cjc160_4865"
    INDEX 01 13:57:27
  TRACK 601 AUDIO
    TITLE "0:"
    INDEX 01 13:59:59
  TRACK 602 AUDIO
    TITLE "31:cjc160_4866"
    INDEX 01 14:00:63
  TRACK 603 AUDIO
    TITLE "0:"
    INDEX 01 14:02:26
  TRACK 604 AUDIO
    TITLE "32:cjc160_4867"
    INDEX 01 14:02:64
  TRACK 605 AUDIO
    TITLE "0:"
    INDEX 01 14:04:19
  TRACK 606 AUDIO
    TITLE "33:cjc160_4868"
    INDEX 01 14:04:62
  TRACK 607 AUDIO
    TITLE "0:"
    INDEX 01 14:06:63
  TRACK 608 AUDIO
    TITLE "34:cjc160_4869"
    INDEX 01 14:07:28
  TRACK 609 AUDIO
    TITLE "0:"
    INDEX 01 14:10:20
  TRACK 610 AUDIO
    TITLE "35:cjc160_4870"
    INDEX 01 14:10:45
  TRACK 611 AUDIO
    TITLE "0:"
    INDEX 01 14:13:38
  TRACK 612 AUDIO
    TITLE "31:cjc160_4871"
    INDEX 01 14:14:37
  TRACK 613 AUDIO
    TITLE "0:"
    INDEX 01 14:16:25
  TRACK 614 AUDIO
    TITLE "32:cjc160_4872"
    INDEX 01 14:16:60
  TRACK 615 AUDIO
    TITLE "0:"
    INDEX 01 14:18:41
  TRACK 616 AUDIO
    TITLE "33:cjc160_4873"
    INDEX 01 14:19:07
  TRACK 617 AUDIO
    TITLE "0:"
    INDEX 01 14:22:19
  TRACK 618 AUDIO
    TITLE "34:cjc160_4874"
    INDEX 01 14:22:58
  TRACK 619 AUDIO
    TITLE "0:"
    INDEX 01 14:25:70
  TRACK 620 AUDIO
    TITLE "35:cjc160_4875"
    INDEX 01 14:26:21
  TRACK 621 AUDIO
    TITLE "0:"
    INDEX 01 14:29:33
  TRACK 622 AUDIO
    TITLE "31:cjc160_4876"
    INDEX 01 14:30:32
  TRACK 623 AUDIO
    TITLE "0:"
    INDEX 01 14:31:59
  TRACK 624 AUDIO
    TITLE "32:cjc160_4877"
    INDEX 01 14:32:29
  TRACK 625 AUDIO
    TITLE "0:"
    INDEX 01 14:35:08
  TRACK 626 AUDIO
    TITLE "33:cjc160_4878"
    INDEX 01 14:35:47
  TRACK 627 AUDIO
    TITLE "0:"
    INDEX 01 14:39:31
  TRACK 628 AUDIO
    TITLE "34:cjc160_4879"
    INDEX 01 14:39:73
  TRACK 629 AUDIO
    TITLE "0:"
    INDEX 01 14:42:75
  TRACK 630 AUDIO
    TITLE "35:cjc160_4880"
    INDEX 01 14:43:27
  TRACK 631 AUDIO
    TITLE "0:"
    INDEX 01 14:46:31
  TRACK 632 AUDIO
    TITLE "31:cjc160_4881"
    INDEX 01 14:47:31
  TRACK 633 AUDIO
    TITLE "0:"
    INDEX 01 14:48:32
  TRACK 634 AUDIO
    TITLE "32:cjc160_4882"
    INDEX 01 14:48:70
  TRACK 635 AUDIO
    TITLE "0:"
    INDEX 01 14:51:11
  TRACK 636 AUDIO
    TITLE "33:cjc160_4883"
    INDEX 01 14:51:48
  TRACK 637 AUDIO
    TITLE "0:"
    INDEX 01 14:54:09
  TRACK 638 AUDIO
    TITLE "34:cjc160_4884"
    INDEX 01 14:54:49
  TRACK 639 AUDIO
    TITLE "0:"
    INDEX 01 14:57:41
  TRACK 640 AUDIO
    TITLE "35:cjc160_4885"
    INDEX 01 14:57:67
  TRACK 641 AUDIO
    TITLE "0:"
    INDEX 01 15:00:57
  TRACK 642 AUDIO
    TITLE "31:cjc160_4886"
    INDEX 01 15:01:57
  TRACK 643 AUDIO
    TITLE "0:"
    INDEX 01 15:02:70
  TRACK 644 AUDIO
    TITLE "32:cjc160_4887"
    INDEX 01 15:03:36
  TRACK 645 AUDIO
    TITLE "0:"
    INDEX 01 15:06:22
  TRACK 646 AUDIO
    TITLE "33:cjc160_4888"
    INDEX 01 15:06:60
  TRACK 647 AUDIO
    TITLE "0:"
    INDEX 01 15:08:39
  TRACK 648 AUDIO
    TITLE "34:cjc160_4889"
    INDEX 01 15:09:03
  TRACK 649 AUDIO
    TITLE "0:"
    INDEX 01 15:10:44
  TRACK 650 AUDIO
    TITLE "35:cjc160_4890"
    INDEX 01 15:10:69
  TRACK 651 AUDIO
    TITLE "0:"
    INDEX 01 15:12:37
  TRACK 652 AUDIO
    TITLE "31:cjc160_4891"
    INDEX 01 15:13:38
  TRACK 653 AUDIO
    TITLE "0:"
    INDEX 01 15:15:39
  TRACK 654 AUDIO
    TITLE "32:cjc160_4892"
    INDEX 01 15:16:03
  TRACK 655 AUDIO
    TITLE "0:"
    INDEX 01 15:17:18
  TRACK 656 AUDIO
    TITLE "33:cjc160_4893"
    INDEX 01 15:17:63
  TRACK 657 AUDIO
    TITLE "0:"
    INDEX 01 15:20:19
  TRACK 658 AUDIO
    TITLE "34:cjc160_4894"
    INDEX 01 15:20:58
  TRACK 659 AUDIO
    TITLE "0:"
    INDEX 01 15:24:07
  TRACK 660 AUDIO
    TITLE "35:cjc160_4895"
    INDEX 01 15:24:32
  TRACK 661 AUDIO
    TITLE "0:"
    INDEX 01 15:27:56
  TRACK 662 AUDIO
    TITLE "31:cjc160_4896"
    INDEX 01 15:28:57
  TRACK 663 AUDIO
    TITLE "0:"
    INDEX 01 15:30:27
  TRACK 664 AUDIO
    TITLE "32:cjc160_4897"
    INDEX 01 15:30:66
  TRACK 665 AUDIO
    TITLE "0:"
    INDEX 01 15:32:22
  TRACK 666 AUDIO
    TITLE "33:cjc160_4898"
    INDEX 01 15:32:57
  TRACK 667 AUDIO
    TITLE "0:"
    INDEX 01 15:36:16
  TRACK 668 AUDIO
    TITLE "34:cjc160_4899"
    INDEX 01 15:36:57
  TRACK 669 AUDIO
    TITLE "0:"
    INDEX 01 15:39:63
  TRACK 670 AUDIO
    TITLE "35:cjc160_4900"
    INDEX 01 15:40:15
  TRACK 671 AUDIO
    TITLE "0:"
    INDEX 01 15:43:22
  TRACK 672 AUDIO
    TITLE "31:cjc160_4901"
    INDEX 01 15:44:23
  TRACK 673 AUDIO
    TITLE "0:"
    INDEX 01 15:45:50
  TRACK 674 AUDIO
    TITLE "32:cjc160_4902"
    INDEX 01 15:46:18
  TRACK 675 AUDIO
    TITLE "0:"
    INDEX 01 15:49:50
  TRACK 676 AUDIO
    TITLE "33:cjc160_4903"
    INDEX 01 15:50:14
  TRACK 677 AUDIO
    TITLE "0:"
    INDEX 01 15:52:44
  TRACK 678 AUDIO
    TITLE "34:cjc160_4904"
    INDEX 01 15:53:08
  TRACK 679 AUDIO
    TITLE "0:"
    INDEX 01 15:55:62
  TRACK 680 AUDIO
    TITLE "35:cjc160_4905"
    INDEX 01 15:56:12
  TRACK 681 AUDIO
    TITLE "0:"
    INDEX 01 15:58:68
  TRACK 682 AUDIO
    TITLE "31:cjc160_4906"
    INDEX 01 15:59:68
  TRACK 683 AUDIO
    TITLE "0:"
    INDEX 01 16:01:21
  TRACK 684 AUDIO
    TITLE "32:cjc160_4907"
    INDEX 01 16:01:61
  TRACK 685 AUDIO
    TITLE "0:"
    INDEX 01 16:03:38
  TRACK 686 AUDIO
    TITLE "33:cjc160_4908"
    INDEX 01 16:03:69
  TRACK 687 AUDIO
    TITLE "0:"
    INDEX 01 16:07:20
  TRACK 688 AUDIO
    TITLE "34:cjc160_4909"
    INDEX 01 16:07:57
  TRACK 689 AUDIO
    TITLE "0:"
    INDEX 01 16:10:50
  TRACK 690 AUDIO
    TITLE "35:cjc160_4910"
    INDEX 01 16:10:75
  TRACK 691 AUDIO
    TITLE "0:"
    INDEX 01 16:13:68
  TRACK 692 AUDIO
    TITLE "31:cjc160_4911"
    INDEX 01 16:14:67
  TRACK 693 AUDIO
    TITLE "0:"
    INDEX 01 16:17:58
  TRACK 694 AUDIO
    TITLE "32:cjc160_4912"
    INDEX 01 16:18:24
  TRACK 695 AUDIO
    TITLE "0:"
    INDEX 01 16:20:15
  TRACK 696 AUDIO
    TITLE "33:cjc160_4913"
    INDEX 01 16:20:56
  TRACK 697 AUDIO
    TITLE "0:"
    INDEX 01 16:23:70
  TRACK 698 AUDIO
    TITLE "34:cjc160_4914"
    INDEX 01 16:24:32
  TRACK 699 AUDIO
    TITLE "0:"
    INDEX 01 16:27:09
  TRACK 700 AUDIO
    TITLE "35:cjc160_4915"
    INDEX 01 16:27:35
  TRACK 701 AUDIO
    TITLE "0:"
    INDEX 01 16:30:11
  TRACK 702 AUDIO
    TITLE "31:cjc160_4916"
    INDEX 01 16:31:13
  TRACK 703 AUDIO
    TITLE "0:"
    INDEX 01 16:33:21
  TRACK 704 AUDIO
    TITLE "32:cjc160_4917"
    INDEX 01 16:33:61
  TRACK 705 AUDIO
    TITLE "0:"
    INDEX 01 16:36:61
  TRACK 706 AUDIO
    TITLE "33:cjc160_4918"
    INDEX 01 16:37:29
  TRACK 707 AUDIO
    TITLE "0:"
    INDEX 01 16:40:22
  TRACK 708 AUDIO
    TITLE "34:cjc160_4919"
    INDEX 01 16:40:61
  TRACK 709 AUDIO
    TITLE "0:"
    INDEX 01 16:43:61
  TRACK 710 AUDIO
    TITLE "35:cjc160_4920"
    INDEX 01 16:44:10
  TRACK 711 AUDIO
    TITLE "0:"
    INDEX 01 16:47:12
  TRACK 712 AUDIO
    TITLE "31:cjc160_4921"
    INDEX 01 16:48:09
  TRACK 713 AUDIO
    TITLE "0:"
    INDEX 01 16:49:30
  TRACK 714 AUDIO
    TITLE "32:cjc160_4922"
    INDEX 01 16:49:68
  TRACK 715 AUDIO
    TITLE "0:"
    INDEX 01 16:51:31
  TRACK 716 AUDIO
    TITLE "33:cjc160_4923"
    INDEX 01 16:51:72
  TRACK 717 AUDIO
    TITLE "0:"
    INDEX 01 16:54:10
  TRACK 718 AUDIO
    TITLE "34:cjc160_4924"
    INDEX 01 16:54:49
  TRACK 719 AUDIO
    TITLE "0:"
    INDEX 01 16:57:55
  TRACK 720 AUDIO
    TITLE "35:cjc160_4925"
    INDEX 01 16:58:04
  TRACK 721 AUDIO
    TITLE "0:"
    INDEX 01 17:01:14
  TRACK 722 AUDIO
    TITLE "31:cjc160_4926"
    INDEX 01 17:02:13
  TRACK 723 AUDIO
    TITLE "0:"
    INDEX 01 17:03:46
  TRACK 724 AUDIO
    TITLE "32:cjc160_4927"
    INDEX 01 17:04:08
  TRACK 725 AUDIO
    TITLE "0:"
    INDEX 01 17:05:35
  TRACK 726 AUDIO
    TITLE "33:cjc160_4928"
    INDEX 01 17:05:72
  TRACK 727 AUDIO
    TITLE "0:"
    INDEX 01 17:07:54
  TRACK 728 AUDIO
    TITLE "34:cjc160_4929"
    INDEX 01 17:08:18
  TRACK 729 AUDIO
    TITLE "0:"
    INDEX 01 17:10:72
  TRACK 730 AUDIO
    TITLE "35:cjc160_4930"
    INDEX 01 17:11:28
  TRACK 731 AUDIO
    TITLE "0:"
    INDEX 01 17:14:07
  TRACK 732 AUDIO
    TITLE "31:cjc160_4931"
    INDEX 01 17:15:16
  TRACK 733 AUDIO
    TITLE "0:"
    INDEX 01 17:17:03
  TRACK 734 AUDIO
    TITLE "32:cjc160_4932"
    INDEX 01 17:17:40
  TRACK 735 AUDIO
    TITLE "0:"
    INDEX 01 17:20:15
  TRACK 736 AUDIO
    TITLE "33:cjc160_4933"
    INDEX 01 17:20:68
  TRACK 737 AUDIO
    TITLE "0:"
    INDEX 01 17:23:12
  TRACK 738 AUDIO
    TITLE "34:cjc160_4934"
    INDEX 01 17:23:49
  TRACK 739 AUDIO
    TITLE "0:"
    INDEX 01 17:26:30
  TRACK 740 AUDIO
    TITLE "35:cjc160_4935"
    INDEX 01 17:26:55
  TRACK 741 AUDIO
    TITLE "0:"
    INDEX 01 17:29:36
  TRACK 742 AUDIO
    TITLE "31:cjc160_4936"
    INDEX 01 17:30:35
  TRACK 743 AUDIO
    TITLE "0:"
    INDEX 01 17:32:09
  TRACK 744 AUDIO
    TITLE "32:cjc160_4937"
    INDEX 01 17:32:48
  TRACK 745 AUDIO
    TITLE "0:"
    INDEX 01 17:33:75
  TRACK 746 AUDIO
    TITLE "33:cjc160_4938"
    INDEX 01 17:34:37
  TRACK 747 AUDIO
    TITLE "0:"
    INDEX 01 17:37:08
  TRACK 748 AUDIO
    TITLE "34:cjc160_4939"
    INDEX 01 17:37:47
  TRACK 749 AUDIO
    TITLE "0:"
    INDEX 01 17:40:41
  TRACK 750 AUDIO
    TITLE "35:cjc160_4940"
    INDEX 01 17:40:65
  TRACK 751 AUDIO
    TITLE "0:"
    INDEX 01 17:43:57
  TRACK 752 AUDIO
    TITLE "31:cjc160_4941"
    INDEX 01 17:44:57
  TRACK 753 AUDIO
    TITLE "0:"
    INDEX 01 17:46:17
  TRACK 754 AUDIO
    TITLE "32:cjc160_4942"
    INDEX 01 17:46:54
  TRACK 755 AUDIO
    TITLE "0:"
    INDEX 01 17:49:58
  TRACK 756 AUDIO
    TITLE "33:cjc160_4943"
    INDEX 01 17:50:24
  TRACK 757 AUDIO
    TITLE "0:"
    INDEX 01 17:52:74
  TRACK 758 AUDIO
    TITLE "34:cjc160_4944"
    INDEX 01 17:53:38
  TRACK 759 AUDIO
    TITLE "0:"
    INDEX 01 17:56:48
  TRACK 760 AUDIO
    TITLE "35:cjc160_4945"
    INDEX 01 17:56:68
  TRACK 761 AUDIO
    TITLE "0:"
    INDEX 01 18:00:03
  TRACK 762 AUDIO
    TITLE "31:cjc160_4946"
    INDEX 01 18:00:73
  TRACK 763 AUDIO
    TITLE "0:"
    INDEX 01 18:02:27
  TRACK 764 AUDIO
    TITLE "32:cjc160_4947"
    INDEX 01 18:02:67
  TRACK 765 AUDIO
    TITLE "0:"
    INDEX 01 18:06:60
  TRACK 766 AUDIO
    TITLE "33:cjc160_4948"
    INDEX 01 18:07:25
  TRACK 767 AUDIO
    TITLE "0:"
    INDEX 01 18:09:43
  TRACK 768 AUDIO
    TITLE "34:cjc160_4949"
    INDEX 01 18:10:05
  TRACK 769 AUDIO
    TITLE "0:"
    INDEX 01 18:12:28
  TRACK 770 AUDIO
    TITLE "35:cjc160_4950"
    INDEX 01 18:12:53
  TRACK 771 AUDIO
    TITLE "0:"
    INDEX 01 18:15:01
  TRACK 772 AUDIO
    TITLE "31:cjc160_4951"
    INDEX 01 18:15:75
  TRACK 773 AUDIO
    TITLE "0:"
    INDEX 01 18:17:27
  TRACK 774 AUDIO
    TITLE "32:cjc160_4952"
    INDEX 01 18:17:64
  TRACK 775 AUDIO
    TITLE "0:"
    INDEX 01 18:19:10
  TRACK 776 AUDIO
    TITLE "33:cjc160_4953"
    INDEX 01 18:19:47
  TRACK 777 AUDIO
    TITLE "0:"
    INDEX 01 18:22:08
  TRACK 778 AUDIO
    TITLE "34:cjc160_4954"
    INDEX 01 18:22:48
  TRACK 779 AUDIO
    TITLE "0:"
    INDEX 01 18:25:19
  TRACK 780 AUDIO
    TITLE "35:cjc160_4955"
    INDEX 01 18:25:42
  TRACK 781 AUDIO
    TITLE "0:"
    INDEX 01 18:28:13
  TRACK 782 AUDIO
    TITLE "31:cjc160_4956"
    INDEX 01 18:29:12
  TRACK 783 AUDIO
    TITLE "0:"
    INDEX 01 18:30:51
  TRACK 784 AUDIO
    TITLE "32:cjc160_4957"
    INDEX 01 18:31:13
  TRACK 785 AUDIO
    TITLE "0:"
    INDEX 01 18:33:75
  TRACK 786 AUDIO
    TITLE "33:cjc160_4958"
    INDEX 01 18:34:37
  TRACK 787 AUDIO
    TITLE "0:"
    INDEX 01 18:36:65
  TRACK 788 AUDIO
    TITLE "34:cjc160_4959"
    INDEX 01 18:37:32
  TRACK 789 AUDIO
    TITLE "0:"
    INDEX 01 18:40:04
  TRACK 790 AUDIO
    TITLE "35:cjc160_4960"
    INDEX 01 18:40:30
  TRACK 791 AUDIO
    TITLE "0:"
    INDEX 01 18:43:05
  TRACK 792 AUDIO
    TITLE "31:cjc160_4961"
    INDEX 01 18:44:04
  TRACK 793 AUDIO
    TITLE "0:"
    INDEX 01 18:45:19
  TRACK 794 AUDIO
    TITLE "32:cjc160_4962"
    INDEX 01 18:45:57
  TRACK 795 AUDIO
    TITLE "0:"
    INDEX 01 18:46:56
  TRACK 796 AUDIO
    TITLE "33:cjc160_4963"
    INDEX 01 18:47:20
  TRACK 797 AUDIO
    TITLE "0:"
    INDEX 01 18:48:61
  TRACK 798 AUDIO
    TITLE "34:cjc160_4964"
    INDEX 01 18:49:25
  TRACK 799 AUDIO
    TITLE "0:"
    INDEX 01 18:51:14
  TRACK 800 AUDIO
    TITLE "35:cjc160_4965"
    INDEX 01 18:51:39
  TRACK 801 AUDIO
    TITLE "0:"
    INDEX 01 18:53:27
  TRACK 802 AUDIO
    TITLE "31:cjc160_4966"
    INDEX 01 18:54:26
  TRACK 803 AUDIO
    TITLE "0:"
    INDEX 01 18:55:55
  TRACK 804 AUDIO
    TITLE "32:cjc160_4967"
    INDEX 01 18:56:17
  TRACK 805 AUDIO
    TITLE "0:"
    INDEX 01 18:57:36
  TRACK 806 AUDIO
    TITLE "33:cjc160_4968"
    INDEX 01 18:58:02
  TRACK 807 AUDIO
    TITLE "0:"
    INDEX 01 19:02:24
  TRACK 808 AUDIO
    TITLE "34:cjc160_4969"
    INDEX 01 19:02:63
  TRACK 809 AUDIO
    TITLE "0:"
    INDEX 01 19:07:19
  TRACK 810 AUDIO
    TITLE "35:cjc160_4970"
    INDEX 01 19:07:46
  TRACK 811 AUDIO
    TITLE "0:"
    INDEX 01 19:12:01
  TRACK 812 AUDIO
    TITLE "31:cjc160_4971"
    INDEX 01 19:13:04
  TRACK 813 AUDIO
    TITLE "0:"
    INDEX 01 19:14:35
  TRACK 814 AUDIO
    TITLE "32:cjc160_4972"
    INDEX 01 19:14:72
  TRACK 815 AUDIO
    TITLE "0:"
    INDEX 01 19:15:73
  TRACK 816 AUDIO
    TITLE "33:cjc160_4973"
    INDEX 01 19:16:37
  TRACK 817 AUDIO
    TITLE "0:"
    INDEX 01 19:18:13
  TRACK 818 AUDIO
    TITLE "34:cjc160_4974"
    INDEX 01 19:18:50
  TRACK 819 AUDIO
    TITLE "0:"
    INDEX 01 19:20:73
  TRACK 820 AUDIO
    TITLE "35:cjc160_4975"
    INDEX 01 19:21:23
  TRACK 821 AUDIO
    TITLE "0:"
    INDEX 01 19:23:45
  TRACK 822 AUDIO
    TITLE "31:cjc160_4976"
    INDEX 01 19:24:45
  TRACK 823 AUDIO
    TITLE "0:"
    INDEX 01 19:26:22
  TRACK 824 AUDIO
    TITLE "32:cjc160_4977"
    INDEX 01 19:26:59
  TRACK 825 AUDIO
    TITLE "0:"
    INDEX 01 19:28:25
  TRACK 826 AUDIO
    TITLE "33:cjc160_4978"
    INDEX 01 19:28:62
  TRACK 827 AUDIO
    TITLE "0:"
    INDEX 01 19:31:39
  TRACK 828 AUDIO
    TITLE "34:cjc160_4979"
    INDEX 01 19:31:74
  TRACK 829 AUDIO
    TITLE "0:"
    INDEX 01 19:35:11
  TRACK 830 AUDIO
    TITLE "35:cjc160_4980"
    INDEX 01 19:35:35
  TRACK 831 AUDIO
    TITLE "0:"
    INDEX 01 19:38:47
  TRACK 832 AUDIO
    TITLE "31:cjc160_4981"
    INDEX 01 19:39:44
  TRACK 833 AUDIO
    TITLE "0:"
    INDEX 01 19:41:06
  TRACK 834 AUDIO
    TITLE "32:cjc160_4982"
    INDEX 01 19:41:43
  TRACK 835 AUDIO
    TITLE "0:"
    INDEX 01 19:42:62
  TRACK 836 AUDIO
    TITLE "33:cjc160_4983"
    INDEX 01 19:43:30
  TRACK 837 AUDIO
    TITLE "0:"
    INDEX 01 19:46:01
  TRACK 838 AUDIO
    TITLE "34:cjc160_4984"
    INDEX 01 19:46:42
  TRACK 839 AUDIO
    TITLE "0:"
    INDEX 01 19:49:33
  TRACK 840 AUDIO
    TITLE "35:cjc160_4985"
    INDEX 01 19:49:57
  TRACK 841 AUDIO
    TITLE "0:"
    INDEX 01 19:52:49
  TRACK 842 AUDIO
    TITLE "31:cjc160_4986"
    INDEX 01 19:53:52
  TRACK 843 AUDIO
    TITLE "0:"
    INDEX 01 19:55:08
  TRACK 844 AUDIO
    TITLE "32:cjc160_4987"
    INDEX 01 19:55:53
  TRACK 845 AUDIO
    TITLE "0:"
    INDEX 01 19:59:51
  TRACK 846 AUDIO
    TITLE "33:cjc160_4988"
    INDEX 01 20:00:15
  TRACK 847 AUDIO
    TITLE "0:"
    INDEX 01 20:02:51
  TRACK 848 AUDIO
    TITLE "34:cjc160_4989"
    INDEX 01 20:03:16
  TRACK 849 AUDIO
    TITLE "0:"
    INDEX 01 20:05:34
  TRACK 850 AUDIO
    TITLE "35:cjc160_4990"
    INDEX 01 20:05:57
  TRACK 851 AUDIO
    TITLE "0:"
    INDEX 01 20:08:01
  TRACK 852 AUDIO
    TITLE "31:cjc160_4991"
    INDEX 01 20:08:75
  TRACK 853 AUDIO
    TITLE "0:"
    INDEX 01 20:10:57
  TRACK 854 AUDIO
    TITLE "32:cjc160_4992"
    INDEX 01 20:11:19
  TRACK 855 AUDIO
    TITLE "0:"
    INDEX 01 20:14:07
  TRACK 856 AUDIO
    TITLE "33:cjc160_4993"
    INDEX 01 20:14:47
  TRACK 857 AUDIO
    TITLE "0:"
    INDEX 01 20:18:03
  TRACK 858 AUDIO
    TITLE "34:cjc160_4994"
    INDEX 01 20:18:42
  TRACK 859 AUDIO
    TITLE "0:"
    INDEX 01 20:21:21
  TRACK 860 AUDIO
    TITLE "35:cjc160_4995"
    INDEX 01 20:21:47
  TRACK 861 AUDIO
    TITLE "0:"
    INDEX 01 20:24:29
  TRACK 862 AUDIO
    TITLE "31:cjc160_4996"
    INDEX 01 20:25:31
  TRACK 863 AUDIO
    TITLE "0:"
    INDEX 01 20:27:16
  TRACK 864 AUDIO
    TITLE "32:cjc160_4997"
    INDEX 01 20:27:55
  TRACK 865 AUDIO
    TITLE "0:"
    INDEX 01 20:29:74
  TRACK 866 AUDIO
    TITLE "33:cjc160_4998"
    INDEX 01 20:30:40
  TRACK 867 AUDIO
    TITLE "0:"
    INDEX 01 20:35:49
  TRACK 868 AUDIO
    TITLE "34:cjc160_4999"
    INDEX 01 20:36:13
  TRACK 869 AUDIO
    TITLE "0:"
    INDEX 01 20:40:01
  TRACK 870 AUDIO
    TITLE "35:cjc160_5000"
    INDEX 01 20:40:28
  TRACK 871 AUDIO
    TITLE "0:"
    INDEX 01 20:44:16
  TRACK 872 AUDIO
    TITLE "31:cjc160_5001"
    INDEX 01 20:45:18
  TRACK 873 AUDIO
    TITLE "0:"
    INDEX 01 20:46:55
  TRACK 874 AUDIO
    TITLE "32:cjc160_5002"
    INDEX 01 20:47:17
  TRACK 875 AUDIO
    TITLE "0:"
    INDEX 01 20:48:44
  TRACK 876 AUDIO
    TITLE "33:cjc160_5003"
    INDEX 01 20:49:14
  TRACK 877 AUDIO
    TITLE "0:"
    INDEX 01 20:51:71
  TRACK 878 AUDIO
    TITLE "34:cjc160_5004"
    INDEX 01 20:52:39
  TRACK 879 AUDIO
    TITLE "0:"
    INDEX 01 20:56:16
  TRACK 880 AUDIO
    TITLE "35:cjc160_5005"
    INDEX 01 20:56:43
  TRACK 881 AUDIO
    TITLE "0:"
    INDEX 01 21:00:19
  TRACK 882 AUDIO
    TITLE "31:cjc160_5006"
    INDEX 01 21:01:21
  TRACK 883 AUDIO
    TITLE "0:"
    INDEX 01 21:02:34
  TRACK 884 AUDIO
    TITLE "32:cjc160_5007"
    INDEX 01 21:02:73
  TRACK 885 AUDIO
    TITLE "0:"
    INDEX 01 21:04:23
  TRACK 886 AUDIO
    TITLE "33:cjc160_5008"
    INDEX 01 21:04:60
  TRACK 887 AUDIO
    TITLE "0:"
    INDEX 01 21:08:38
  TRACK 888 AUDIO
    TITLE "34:cjc160_5009"
    INDEX 01 21:09:03
  TRACK 889 AUDIO
    TITLE "0:"
    INDEX 01 21:12:30
  TRACK 890 AUDIO
    TITLE "35:cjc160_5010"
    INDEX 01 21:12:58
  TRACK 891 AUDIO
    TITLE "0:"
    INDEX 01 21:16:13
  TRACK 892 AUDIO
    TITLE "31:cjc160_5011"
    INDEX 01 21:17:12
  TRACK 893 AUDIO
    TITLE "0:"
    INDEX 01 21:18:13
  TRACK 894 AUDIO
    TITLE "32:cjc160_5012"
    INDEX 01 21:18:60
  TRACK 895 AUDIO
    TITLE "0:"
    INDEX 01 21:20:55
  TRACK 896 AUDIO
    TITLE "33:cjc160_5013"
    INDEX 01 21:21:18
  TRACK 897 AUDIO
    TITLE "0:"
    INDEX 01 21:23:62
  TRACK 898 AUDIO
    TITLE "34:cjc160_5014"
    INDEX 01 21:24:28
  TRACK 899 AUDIO
    TITLE "0:"
    INDEX 01 21:26:52
  TRACK 900 AUDIO
    TITLE "35:cjc160_5015"
    INDEX 01 21:27:03
  TRACK 901 AUDIO
    TITLE "0:"
    INDEX 01 21:29:27
  TRACK 902 AUDIO
    TITLE "31:cjc160_5016"
    INDEX 01 21:30:26
  TRACK 903 AUDIO
    TITLE "0:"
    INDEX 01 21:31:55
  TRACK 904 AUDIO
    TITLE "32:cjc160_5017"
    INDEX 01 21:32:17
  TRACK 905 AUDIO
    TITLE "0:"
    INDEX 01 21:33:25
  TRACK 906 AUDIO
    TITLE "33:cjc160_5018"
    INDEX 01 21:33:62
  TRACK 907 AUDIO
    TITLE "0:"
    INDEX 01 21:36:41
  TRACK 908 AUDIO
    TITLE "34:cjc160_5019"
    INDEX 01 21:37:05
  TRACK 909 AUDIO
    TITLE "0:"
    INDEX 01 21:40:23
  TRACK 910 AUDIO
    TITLE "35:cjc160_5020"
    INDEX 01 21:40:46
  TRACK 911 AUDIO
    TITLE "0:"
    INDEX 01 21:43:64
  TRACK 912 AUDIO
    TITLE "31:cjc160_5021"
    INDEX 01 21:44:66
  TRACK 913 AUDIO
    TITLE "0:"
    INDEX 01 21:46:12
  TRACK 914 AUDIO
    TITLE "32:cjc160_5022"
    INDEX 01 21:46:45
  TRACK 915 AUDIO
    TITLE "0:"
    INDEX 01 21:48:03
  TRACK 916 AUDIO
    TITLE "33:cjc160_5023"
    INDEX 01 21:48:38
  TRACK 917 AUDIO
    TITLE "0:"
    INDEX 01 21:53:08
  TRACK 918 AUDIO
    TITLE "34:cjc160_5024"
    INDEX 01 21:53:49
  TRACK 919 AUDIO
    TITLE "0:"
    INDEX 01 21:57:51
  TRACK 920 AUDIO
    TITLE "35:cjc160_5025"
    INDEX 01 21:58:03
  TRACK 921 AUDIO
    TITLE "0:"
    INDEX 01 22:02:05
  TRACK 922 AUDIO
    TITLE "31:cjc160_5026"
    INDEX 01 22:03:04
  TRACK 923 AUDIO
    TITLE "0:"
    INDEX 01 22:04:27
  TRACK 924 AUDIO
    TITLE "32:cjc160_5027"
    INDEX 01 22:04:64
  TRACK 925 AUDIO
    TITLE "0:"
    INDEX 01 22:06:18
  TRACK 926 AUDIO
    TITLE "33:cjc160_5028"
    INDEX 01 22:06:59
  TRACK 927 AUDIO
    TITLE "0:"
    INDEX 01 22:10:34
  TRACK 928 AUDIO
    TITLE "34:cjc160_5029"
    INDEX 01 22:10:73
  TRACK 929 AUDIO
    TITLE "0:"
    INDEX 01 22:14:35
  TRACK 930 AUDIO
    TITLE "35:cjc160_5030"
    INDEX 01 22:14:59
  TRACK 931 AUDIO
    TITLE "0:"
    INDEX 01 22:18:23
  TRACK 932 AUDIO
    TITLE "31:cjc160_5031"
    INDEX 01 22:19:23
  TRACK 933 AUDIO
    TITLE "0:"
    INDEX 01 22:20:40
  TRACK 934 AUDIO
    TITLE "32:cjc160_5032"
    INDEX 01 22:21:06
  TRACK 935 AUDIO
    TITLE "0:"
    INDEX 01 22:22:35
  TRACK 936 AUDIO
    TITLE "33:cjc160_5033"
    INDEX 01 22:23:01
  TRACK 937 AUDIO
    TITLE "0:"
    INDEX 01 22:26:13
  TRACK 938 AUDIO
    TITLE "34:cjc160_5034"
    INDEX 01 22:26:52
  TRACK 939 AUDIO
    TITLE "0:"
    INDEX 01 22:28:61
  TRACK 940 AUDIO
    TITLE "35:cjc160_5035"
    INDEX 01 22:29:09
  TRACK 941 AUDIO
    TITLE "0:"
    INDEX 01 22:31:20
  TRACK 942 AUDIO
    TITLE "31:cjc160_5036"
    INDEX 01 22:32:18
  TRACK 943 AUDIO
    TITLE "0:"
    INDEX 01 22:33:41
  TRACK 944 AUDIO
    TITLE "32:cjc160_5037"
    INDEX 01 22:34:03
  TRACK 945 AUDIO
    TITLE "0:"
    INDEX 01 22:35:24
  TRACK 946 AUDIO
    TITLE "33:cjc160_5038"
    INDEX 01 22:35:61
  TRACK 947 AUDIO
    TITLE "0:"
    INDEX 01 22:38:28
  TRACK 948 AUDIO
    TITLE "34:cjc160_5039"
    INDEX 01 22:38:67
  TRACK 949 AUDIO
    TITLE "0:"
    INDEX 01 22:41:48
  TRACK 950 AUDIO
    TITLE "35:cjc160_5040"
    INDEX 01 22:41:71
  TRACK 951 AUDIO
    TITLE "0:"
    INDEX 01 22:44:52
  TRACK 952 AUDIO
    TITLE "31:cjc160_5041"
    INDEX 01 22:45:52
  TRACK 953 AUDIO
    TITLE "0:"
    INDEX 01 22:46:69
  TRACK 954 AUDIO
    TITLE "32:cjc160_5042"
    INDEX 01 22:47:31
  TRACK 955 AUDIO
    TITLE "0:"
    INDEX 01 22:48:42
  TRACK 956 AUDIO
    TITLE "33:cjc160_5043"
    INDEX 01 22:49:06
  TRACK 957 AUDIO
    TITLE "0:"
    INDEX 01 22:52:50
  TRACK 958 AUDIO
    TITLE "34:cjc160_5044"
    INDEX 01 22:53:12
  TRACK 959 AUDIO
    TITLE "0:"
    INDEX 01 22:57:18
  TRACK 960 AUDIO
    TITLE "35:cjc160_5045"
    INDEX 01 22:57:43
  TRACK 961 AUDIO
    TITLE "0:"
    INDEX 01 23:01:47
  TRACK 962 AUDIO
    TITLE "31:cjc160_5046"
    INDEX 01 23:02:48
  TRACK 963 AUDIO
    TITLE "0:"
    INDEX 01 23:04:02
  TRACK 964 AUDIO
    TITLE "32:cjc160_5047"
    INDEX 01 23:04:39
  TRACK 965 AUDIO
    TITLE "0:"
    INDEX 01 23:06:09
  TRACK 966 AUDIO
    TITLE "33:cjc160_5048"
    INDEX 01 23:06:46
  TRACK 967 AUDIO
    TITLE "0:"
    INDEX 01 23:10:03
  TRACK 968 AUDIO
    TITLE "34:cjc160_5049"
    INDEX 01 23:10:40
  TRACK 969 AUDIO
    TITLE "0:"
    INDEX 01 23:13:62
  TRACK 970 AUDIO
    TITLE "35:cjc160_5050"
    INDEX 01 23:14:20
  TRACK 971 AUDIO
    TITLE "0:"
    INDEX 01 23:17:40
  TRACK 972 AUDIO
    TITLE "31:cjc160_5051"
    INDEX 01 23:18:45
  TRACK 973 AUDIO
    TITLE "0:"
    INDEX 01 23:19:68
  TRACK 974 AUDIO
    TITLE "32:cjc160_5052"
    INDEX 01 23:20:28
  TRACK 975 AUDIO
    TITLE "0:"
    INDEX 01 23:22:08
  TRACK 976 AUDIO
    TITLE "33:cjc160_5053"
    INDEX 01 23:22:49
  TRACK 977 AUDIO
    TITLE "0:"
    INDEX 01 23:24:67
  TRACK 978 AUDIO
    TITLE "34:cjc160_5054"
    INDEX 01 23:25:32
  TRACK 979 AUDIO
    TITLE "0:"
    INDEX 01 23:27:36
  TRACK 980 AUDIO
    TITLE "35:cjc160_5055"
    INDEX 01 23:27:66
  TRACK 981 AUDIO
    TITLE "0:"
    INDEX 01 23:29:67
  TRACK 982 AUDIO
    TITLE "31:cjc160_5056"
    INDEX 01 23:30:68
  TRACK 983 AUDIO
    TITLE "0:"
    INDEX 01 23:32:14
  TRACK 984 AUDIO
    TITLE "32:cjc160_5057"
    INDEX 01 23:32:49
  TRACK 985 AUDIO
    TITLE "0:"
    INDEX 01 23:34:03
  TRACK 986 AUDIO
    TITLE "33:cjc160_5058"
    INDEX 01 23:34:38
  TRACK 987 AUDIO
    TITLE "0:"
    INDEX 01 23:37:01
  TRACK 988 AUDIO
    TITLE "34:cjc160_5059"
    INDEX 01 23:37:41
  TRACK 989 AUDIO
    TITLE "0:"
    INDEX 01 23:40:31
  TRACK 990 AUDIO
    TITLE "35:cjc160_5060"
    INDEX 01 23:40:55
  TRACK 991 AUDIO
    TITLE "0:"
    INDEX 01 23:43:45
  TRACK 992 AUDIO
    TITLE "31:cjc160_5061"
    INDEX 01 23:44:45
  TRACK 993 AUDIO
    TITLE "0:"
    INDEX 01 23:46:04
  TRACK 994 AUDIO
    TITLE "32:cjc160_5062"
    INDEX 01 23:46:40
  TRACK 995 AUDIO
    TITLE "0:"
    INDEX 01 23:48:33
  TRACK 996 AUDIO
    TITLE "33:cjc160_5063"
    INDEX 01 23:48:70
  TRACK 997 AUDIO
    TITLE "0:"
    INDEX 01 23:50:53
  TRACK 998 AUDIO
    TITLE "34:cjc160_5064"
    INDEX 01 23:51:17
  TRACK 999 AUDIO
    TITLE "0:"
    INDEX 01 23:53:36
  TRACK 1000 AUDIO
    TITLE "35:cjc160_5065"
    INDEX 01 23:53:63
  TRACK 1001 AUDIO
    TITLE "0:"
    INDEX 01 23:56:03
